<svg xmlns="http://www.w3.org/2000/svg" viewBox="0 0 196 64" width="588" height="192" role="img" aria-label="Marga" xmlns:c2pa="http://c2pa.org/manifest"><metadata><c2pa:manifest>AAAWgmp1bWIAAAAeanVtZGMycGEAEQAQgAAAqgA4m3EDYzJwYQAAABZcanVtYgAAAEdqdW1kYzJtYQARABCAAACqADibcQN1cm46YzJwYTo4YTBmNDNjZi0zODEwLTRhYzgtYTI5Ni1jM2NmNmVjYTkyMDQAAAADl2p1bWIAAAApanVtZGMyYXMAEQAQgAAAqgA4m3EDYzJwYS5hc3NlcnRpb25zAAAAALxqdW1iAAAARGp1bWRjYm9yABEAEIAAAKoAOJtxE2MycGEuaW5ncmVkaWVudC52MwAAAAAYYzJzaJhhloUf6YqegpKqgFfJZRcAAABwY2JvcqNpZGM6Zm9ybWF0bWltYWdlL3N2Zyt4bWxqaW5zdGFuY2VJRHgseG1wOmlpZDo0NzA0ZTBkMC1iMDc5LTQ5ZWUtYjRlOC04Y2YyZGJmNzRiNzBscmVsYXRpb25zaGlwaHBhcmVudE9mAAAB4mp1bWIAAABBanVtZGNib3IAEQAQgAAAqgA4m3ETYzJwYS5hY3Rpb25zLnYyAAAAABhjMnNoL3sC2Tneaf9qNg2w7s2MRgAAAZljYm9yomdhY3Rpb25zgqJmYWN0aW9ua2MycGEub3BlbmVkanBhcmFtZXRlcnOha2luZ3JlZGllbnRzgaJjdXJseC1zZWxmI2p1bWJmPWMycGEuYXNzZXJ0aW9ucy9jMnBhLmluZ3JlZGllbnQudjNkaGFzaFggFeTU6QK5gbuymPnI/9UpfUuc/q8/vua4GN1yUewGaQSkZmFjdGlvbngdY29tLmFudGhyb3BpYy5jbGF1ZGUucHJvdmlkZWRqcGFyYW1ldGVyc6F4H2NvbS5hbnRocm9waWMub3JpZ2luLWNvbmZpZGVuY2VndW5rbm93bmtkZXNjcmlwdGlvbnhmQ2xhdWRlIHByb3ZpZGVkIHRoaXMgZmlsZSBhdCB0aGUgcmVxdWVzdCBvZiBhIHVzZXIgYW5kIG1heSBoYXZlIGNyZWF0ZWQgb3IgbW9kaWZpZWQgdGhlIGZpbGUgY29udGVudHMubXNvZnR3YXJlQWdlbnShZG5hbWVmQ2xhdWRlcmFsbEFjdGlvbnNJbmNsdWRlZPUAAADIanVtYgAAAEBqdW1kY2JvcgARABCAAACqADibcRNjMnBhLmhhc2guZGF0YQAAAAAYYzJzaC/X7TKDtM1aDlIEFK3PvzgAAACAY2JvcqVjYWxnZnNoYTI1NmNwYWRNAAAAAAAAAAAAAAAAAGRoYXNoWCCw4mshuoXorPstzci1gEOwnvDaVyYL9n7Fr1Dhwctd6mRuYW1lbmp1bWJmIG1hbmlmZXN0amV4Y2x1c2lvbnOBomVzdGFydBizZmxlbmd0aBkeBAAAAj5qdW1iAAAAJ2p1bWRjMmNsABEAEIAAAKoAOJtxA2MycGEuY2xhaW0udjIAAAACD2Nib3KlY2FsZ2ZzaGEyNTZpc2lnbmF0dXJleE1zZWxmI2p1bWJmPS9jMnBhL3VybjpjMnBhOjhhMGY0M2NmLTM4MTAtNGFjOC1hMjk2LWMzY2Y2ZWNhOTIwNC9jMnBhLnNpZ25hdHVyZWppbnN0YW5jZUlEeCx4bXA6aWlkOmVlZGJlYjQyLTExYjktNGRjYi04OWFkLTU3Njc1NDU3ZDdjNHJjcmVhdGVkX2Fzc2VydGlvbnODomN1cmx4LXNlbGYjanVtYmY9YzJwYS5hc3NlcnRpb25zL2MycGEuaW5ncmVkaWVudC52M2RoYXNoWCAV5NTpArmBu7KY+cj/1Sl9S5z+rz++5rgY3XJR7AZpBKJjdXJseCpzZWxmI2p1bWJmPWMycGEuYXNzZXJ0aW9ucy9jMnBhLmFjdGlvbnMudjJkaGFzaFgg9c4BIILeVgqfHXntp+HsX14rGGqSP1bwOefNnMR1KyCiY3VybHgpc2VsZiNqdW1iZj1jMnBhLmFzc2VydGlvbnMvYzJwYS5oYXNoLmRhdGFkaGFzaFggdRFbIQng7qc7D4LjV/lZmSHBXW7taoAuWh7wpJLD9MJ0Y2xhaW1fZ2VuZXJhdG9yX2luZm+jZG5hbWVvQW50aHJvcGljIEZpbGVzZ3ZlcnNpb25lMS4wLjBrc3BlY1ZlcnNpb25lMi40LjAAABA4anVtYgAAAChqdW1kYzJjcwARABCAAACqADibcQNjMnBhLnNpZ25hdHVyZQAAABAIY2JvctKEWQISogEmGCFZAgowggIGMIIBjaADAgECAhRA5aAK7sI50L64g/oGQgU9Z1UTADAKBggqhkjOPQQDAzBJMRcwFQYDVQQKEw5BbnRocm9waWMsIFBCQzEuMCwGA1UEAxMlQW50aHJvcGljIENvbnRlbnQgQ3JlZGVudGlhbHMgUm9vdCBDQTAeFw0yNjA4MDcxODQzNTZaFw0yODA4MDYxOTQzNTZaMEQxFzAVBgNVBAoTDkFudGhyb3BpYywgUEJDMSkwJwYDVQQDEyBBbnRocm9waWMgQ2xhdWRlIENvbnRlbnQgU2lnbmluZzBZMBMGByqGSM49AgEGCCqGSM49AwEHA0IABJh6CmvLUBgFFNU0vUKlOVtE6djd17L5SuwX0LemFisBM3dkd/3cyjxFA3Qo5S46fX0/ihY0VZ7mfb9KF703t5OjWDBWMA4GA1UdDwEB/wQEAwIHgDAVBgNVHSUEDjAMBgorBgEEAYPoXgIBMAwGA1UdEwEB/wQCMAAwHwYDVR0jBBgwFoAUzlHiBIFOZFsj+OPEz5o+nMHXXMIwCgYIKoZIzj0EAwMDZwAwZAIwMXMdFJ4BetLLVY7ORuE9noqbbAZOZn/aArXyTwFAZfKrPzxF2vPoJNf1+UCdg1XGAjBwX1zd9WGqYkqmL5SFqw1QySjr1zJfpJM9+1rdDwSPLMOPOjKuiXjoU/pUUeG9RwmhY3BhZFkNngAAAAAAAAAAAAAAAAAAAAAAAAAAAAAAAAAAAAAAAAAAAAAAAAAAAAAAAAAAAAAAAAAAAAAAAAAAAAAAAAAAAAAAAAAAAAAAAAAAAAAAAAAAAAAAAAAAAAAAAAAAAAAAAAAAAAAAAAAAAAAAAAAAAAAAAAAAAAAAAAAAAAAAAAAAAAAAAAAAAAAAAAAAAAAAAAAAAAAAAAAAAAAAAAAAAAAAAAAAAAAAAAAAAAAAAAAAAAAAAAAAAAAAAAAAAAAAAAAAAAAAAAAAAAAAAAAAAAAAAAAAAAAAAAAAAAAAAAAAAAAAAAAAAAAAAAAAAAAAAAAAAAAAAAAAAAAAAAAAAAAAAAAAAAAAAAAAAAAAAAAAAAAAAAAAAAAAAAAAAAAAAAAAAAAAAAAAAAAAAAAAAAAAAAAAAAAAAAAAAAAAAAAAAAAAAAAAAAAAAAAAAAAAAAAAAAAAAAAAAAAAAAAAAAAAAAAAAAAAAAAAAAAAAAAAAAAAAAAAAAAAAAAAAAAAAAAAAAAAAAAAAAAAAAAAAAAAAAAAAAAAAAAAAAAAAAAAAAAAAAAAAAAAAAAAAAAAAAAAAAAAAAAAAAAAAAAAAAAAAAAAAAAAAAAAAAAAAAAAAAAAAAAAAAAAAAAAAAAAAAAAAAAAAAAAAAAAAAAAAAAAAAAAAAAAAAAAAAAAAAAAAAAAAAAAAAAAAAAAAAAAAAAAAAAAAAAAAAAAAAAAAAAAAAAAAAAAAAAAAAAAAAAAAAAAAAAAAAAAAAAAAAAAAAAAAAAAAAAAAAAAAAAAAAAAAAAAAAAAAAAAAAAAAAAAAAAAAAAAAAAAAAAAAAAAAAAAAAAAAAAAAAAAAAAAAAAAAAAAAAAAAAAAAAAAAAAAAAAAAAAAAAAAAAAAAAAAAAAAAAAAAAAAAAAAAAAAAAAAAAAAAAAAAAAAAAAAAAAAAAAAAAAAAAAAAAAAAAAAAAAAAAAAAAAAAAAAAAAAAAAAAAAAAAAAAAAAAAAAAAAAAAAAAAAAAAAAAAAAAAAAAAAAAAAAAAAAAAAAAAAAAAAAAAAAAAAAAAAAAAAAAAAAAAAAAAAAAAAAAAAAAAAAAAAAAAAAAAAAAAAAAAAAAAAAAAAAAAAAAAAAAAAAAAAAAAAAAAAAAAAAAAAAAAAAAAAAAAAAAAAAAAAAAAAAAAAAAAAAAAAAAAAAAAAAAAAAAAAAAAAAAAAAAAAAAAAAAAAAAAAAAAAAAAAAAAAAAAAAAAAAAAAAAAAAAAAAAAAAAAAAAAAAAAAAAAAAAAAAAAAAAAAAAAAAAAAAAAAAAAAAAAAAAAAAAAAAAAAAAAAAAAAAAAAAAAAAAAAAAAAAAAAAAAAAAAAAAAAAAAAAAAAAAAAAAAAAAAAAAAAAAAAAAAAAAAAAAAAAAAAAAAAAAAAAAAAAAAAAAAAAAAAAAAAAAAAAAAAAAAAAAAAAAAAAAAAAAAAAAAAAAAAAAAAAAAAAAAAAAAAAAAAAAAAAAAAAAAAAAAAAAAAAAAAAAAAAAAAAAAAAAAAAAAAAAAAAAAAAAAAAAAAAAAAAAAAAAAAAAAAAAAAAAAAAAAAAAAAAAAAAAAAAAAAAAAAAAAAAAAAAAAAAAAAAAAAAAAAAAAAAAAAAAAAAAAAAAAAAAAAAAAAAAAAAAAAAAAAAAAAAAAAAAAAAAAAAAAAAAAAAAAAAAAAAAAAAAAAAAAAAAAAAAAAAAAAAAAAAAAAAAAAAAAAAAAAAAAAAAAAAAAAAAAAAAAAAAAAAAAAAAAAAAAAAAAAAAAAAAAAAAAAAAAAAAAAAAAAAAAAAAAAAAAAAAAAAAAAAAAAAAAAAAAAAAAAAAAAAAAAAAAAAAAAAAAAAAAAAAAAAAAAAAAAAAAAAAAAAAAAAAAAAAAAAAAAAAAAAAAAAAAAAAAAAAAAAAAAAAAAAAAAAAAAAAAAAAAAAAAAAAAAAAAAAAAAAAAAAAAAAAAAAAAAAAAAAAAAAAAAAAAAAAAAAAAAAAAAAAAAAAAAAAAAAAAAAAAAAAAAAAAAAAAAAAAAAAAAAAAAAAAAAAAAAAAAAAAAAAAAAAAAAAAAAAAAAAAAAAAAAAAAAAAAAAAAAAAAAAAAAAAAAAAAAAAAAAAAAAAAAAAAAAAAAAAAAAAAAAAAAAAAAAAAAAAAAAAAAAAAAAAAAAAAAAAAAAAAAAAAAAAAAAAAAAAAAAAAAAAAAAAAAAAAAAAAAAAAAAAAAAAAAAAAAAAAAAAAAAAAAAAAAAAAAAAAAAAAAAAAAAAAAAAAAAAAAAAAAAAAAAAAAAAAAAAAAAAAAAAAAAAAAAAAAAAAAAAAAAAAAAAAAAAAAAAAAAAAAAAAAAAAAAAAAAAAAAAAAAAAAAAAAAAAAAAAAAAAAAAAAAAAAAAAAAAAAAAAAAAAAAAAAAAAAAAAAAAAAAAAAAAAAAAAAAAAAAAAAAAAAAAAAAAAAAAAAAAAAAAAAAAAAAAAAAAAAAAAAAAAAAAAAAAAAAAAAAAAAAAAAAAAAAAAAAAAAAAAAAAAAAAAAAAAAAAAAAAAAAAAAAAAAAAAAAAAAAAAAAAAAAAAAAAAAAAAAAAAAAAAAAAAAAAAAAAAAAAAAAAAAAAAAAAAAAAAAAAAAAAAAAAAAAAAAAAAAAAAAAAAAAAAAAAAAAAAAAAAAAAAAAAAAAAAAAAAAAAAAAAAAAAAAAAAAAAAAAAAAAAAAAAAAAAAAAAAAAAAAAAAAAAAAAAAAAAAAAAAAAAAAAAAAAAAAAAAAAAAAAAAAAAAAAAAAAAAAAAAAAAAAAAAAAAAAAAAAAAAAAAAAAAAAAAAAAAAAAAAAAAAAAAAAAAAAAAAAAAAAAAAAAAAAAAAAAAAAAAAAAAAAAAAAAAAAAAAAAAAAAAAAAAAAAAAAAAAAAAAAAAAAAAAAAAAAAAAAAAAAAAAAAAAAAAAAAAAAAAAAAAAAAAAAAAAAAAAAAAAAAAAAAAAAAAAAAAAAAAAAAAAAAAAAAAAAAAAAAAAAAAAAAAAAAAAAAAAAAAAAAAAAAAAAAAAAAAAAAAAAAAAAAAAAAAAAAAAAAAAAAAAAAAAAAAAAAAAAAAAAAAAAAAAAAAAAAAAAAAAAAAAAAAAAAAAAAAAAAAAAAAAAAAAAAAAAAAAAAAAAAAAAAAAAAAAAAAAAAAAAAAAAAAAAAAAAAAAAAAAAAAAAAAAAAAAAAAAAAAAAAAAAAAAAAAAAAAAAAAAAAAAAAAAAAAAAAAAAAAAAAAAAAAAAAAAAAAAAAAAAAAAAAAAAAAAAAAAAAAAAAAAAAAAAAAAAAAAAAAAAAAAAAAAAAAAAAAAAAAAAAAAAAAAAAAAAAAAAAAAAAAAAAAAAAAAAAAAAAAAAAAAAAAAAAAAAAAAAAAAAAAAAAAAAAAAAAAAAAAAAAAAAAAAAAAAAAAAAAAAAAAAAAAAAAAAAAAAAAAAAAAAAAAAAAAAAAAAAAAAAAAAAAAAAAAAAAAAAAAAAAAAAAAAAAAAAAAAAAAAAAAAAAAAAAAAAAAAAAAAAAAAAAAAAAAAAAAAAAAAAAAAAAAAAAAAAAAAAAAAAAAAAAAAAAAAAAAAAAAAAAAAAAAAAAAAAAAAAAAAAAAAAAAAAAAAAAAAAAAAAAAAAAAAAAAAAAAAAAAAAAAAAAAAAAAAAAAAAAAAAAAAAAAAAAAAAAAAAAAAAAAAAAAAAAAAAAAAAAAAAAAAAAAAAAAAAAAAAAAAAAAAAAAAAAAAAAAAAAAAAAAAAAAAAAAAAAAAAAAAAAAAAAAAAAAAAAAAAAAAAAAAAAAAAAAAAAAAAAAAAAAAAAAAAAAAAAAAAAAAAAAAAAAAAAAAAAAAAAAAAAAAAAAAAAAAAAAAAAAAAAAAAAAAAAAAAAAAAAAAAAAAAAAAAAAAAAAAAAAAAAAAAAAAAAAAAAAAAAAAAAAAAAAAAAAAAAAAAAAAAAAAAAAAAAAAAAAAAAAAAAAAAAAAAAAAAAAAAAAAAAAAAAAAAAAAAAAAAAAAAAAAAAAAAAAAAAAAAAAAAAAAAAAAAAAAAAAAAAAAAAAAAAAAAAAAAAAAAAAAAAAAAAAAAAAAAAAAAAAAAAAAAAAAAAAAAAAAAAAAAAAAAAAAAAAAAAAAAAAAAAAAAAAAAAAAAAAAAAAAAAAAAAAAAAAAAAAAAAAAAAAAAAAAAAAAAAAAAAAAAAAAAAAAAAAAAAAAAAAAAAAAAAAAAAAAAAAAAAAAAAAAAAAAAAAAAAAAAAAAAAAAAAAAAAAAAAAAAAAAAAAAAAAAAAAAAAAAAAAAAAAAAAAAAAAAAAAAAAAAAAAAAAAAAAAAAAAAAAAAAAAAAAAAAAAAAAAAAAAAAAAAAAAAAAAAAAAAAAAAAAAAAAAAAAAAAAAAAAAAAAAAAAAAAAAAAAAAAAAAAAAAAAAAAAAAAAAAAAAAAAAAAAAAAAAAAAAAAAAAAAAAAAAAAAAAAAAAAAAAAAAAAAAAAAAAAAAAAAAAAAAAAAAAAAAAAAAAAAAAAAAAAAAAAAAAAAAAAAAAAAAAAAAAAAAAAAAAAAAAAAAAAAAAAAAAAAAAAAAAAAAAAAAAAAAAAAAAAAAAAAAAAAAAAAAAAAAAAAAAAAAAAAAAAAAAAAAAAAAAAAAAAAAAAAAAAAAAAAAAAAAAAAAAAAPZYQONklYoFjreoJ/yiRpPU5y58oU5oa+gOWkujncZZfkLUY1O/XT4pt3ujkBs/yco/ledtnGSCVujjjUHH6AQ2CfA=</c2pa:manifest></metadata>
  <title>Marga</title>
  <defs>
    <linearGradient id="mg-path" x1="15" y1="33" x2="49" y2="33" gradientUnits="userSpaceOnUse">
      <stop offset="0" stop-color="#06b6d4"/><stop offset="1" stop-color="#10b981"/>
    </linearGradient>
    <linearGradient id="mg-tile" x1="0" y1="0" x2="64" y2="64" gradientUnits="userSpaceOnUse">
      <stop offset="0" stop-color="#0b1a2e"/><stop offset="1" stop-color="#030a14"/>
    </linearGradient>
    <linearGradient id="mg-edge" x1="0" y1="0" x2="64" y2="64" gradientUnits="userSpaceOnUse">
      <stop offset="0" stop-color="#06b6d4" stop-opacity=".55"/><stop offset="1" stop-color="#10b981" stop-opacity=".15"/>
    </linearGradient>
    <filter id="mg-glow" x="-30%" y="-30%" width="160%" height="160%"><feGaussianBlur stdDeviation="2.2"/></filter>
  </defs>
  <rect x="1" y="1" width="62" height="62" rx="15" fill="url(#mg-tile)" stroke="url(#mg-edge)" stroke-width="1.5"/>
  <path d="M15 47V19l17 17 17-17v28" fill="none" stroke="url(#mg-path)" stroke-width="6" stroke-linecap="round" stroke-linejoin="round" opacity=".55" filter="url(#mg-glow)"/>
  <path d="M15 47V19l17 17 17-17v28" fill="none" stroke="url(#mg-path)" stroke-width="4.5" stroke-linecap="round" stroke-linejoin="round"/>
  <circle cx="15" cy="19" r="4" fill="#030a14" stroke="#06b6d4" stroke-width="2.4"/>
  <circle cx="32" cy="36" r="4" fill="#030a14" stroke="#0bb8b0" stroke-width="2.4"/>
  <circle cx="49" cy="19" r="4" fill="#030a14" stroke="#0db89a" stroke-width="2.4"/>
  <rect x="11" y="43" width="8" height="8" rx="1.2" transform="rotate(45 15 47)" fill="#f43f5e"/>
  <circle cx="49" cy="47" r="9" fill="#10b981" opacity=".22"/>
  <circle cx="49" cy="47" r="5" fill="#10b981" stroke="#d1fae5" stroke-width="1.6"/>
  <g transform="translate(82 45) scale(0.017450)" fill="#0f172a"><path d="M111 0V-1490H560L806 -796Q827 -730 858.5 -624.5Q890 -519 917 -423Q944 -519 975.5 -624.5Q1007 -730 1027 -796L1270 -1490H1719V0H1418V-708Q1418 -786 1421.5 -908.0Q1425 -1030 1428 -1153Q1389 -1023 1353.0 -901.5Q1317 -780 1293 -708L1041 0H791L536 -708Q513 -777 477.5 -892.0Q442 -1007 404 -1132Q407 -1014 410.0 -898.5Q413 -783 413 -708V0Z M2237.52 18Q2079.52 18 1977.02 -61.0Q1874.52 -140 1874.52 -298Q1874.52 -417 1931.52 -484.5Q1988.52 -552 2082.52 -583.0Q2176.52 -614 2286.52 -624Q2431.52 -639 2489.52 -654.0Q2547.52 -669 2547.52 -720V-727Q2547.52 -785 2501.52 -822.0Q2455.52 -859 2374.52 -859Q2292.52 -859 2241.52 -821.0Q2190.52 -783 2185.52 -722H1908.52Q1918.52 -885 2042.52 -981.5Q2166.52 -1078 2383.52 -1078Q2600.52 -1078 2719.52 -981.5Q2838.52 -885 2838.52 -716V0H2550.52V-149H2546.52Q2504.52 -72 2431.52 -27.0Q2358.52 18 2237.52 18ZM2319.52 -187Q2425.52 -187 2487.52 -243.5Q2549.52 -300 2549.52 -386V-492Q2524.52 -478 2466.52 -466.5Q2408.52 -455 2337.52 -444Q2261.52 -432 2209.02 -400.5Q2156.52 -369 2156.52 -306Q2156.52 -250 2201.02 -218.5Q2245.52 -187 2319.52 -187Z M3026.04 0V-1056H3310.04V-876H3313.04Q3342.04 -971 3404.04 -1017.0Q3466.04 -1063 3571.04 -1063Q3597.04 -1063 3618.54 -1062.0Q3640.04 -1061 3658.04 -1061V-810Q3642.04 -811 3605.04 -813.0Q3568.04 -815 3531.04 -815Q3440.04 -815 3380.54 -753.0Q3321.04 -691 3321.04 -572V0Z M4268.5599999999995 432Q4043.56 432 3920.56 338.0Q3797.56 244 3775.56 90H4059.56Q4075.56 150 4130.5599999999995 182.5Q4185.5599999999995 215 4268.5599999999995 215Q4376.5599999999995 215 4435.0599999999995 156.0Q4493.5599999999995 97 4493.5599999999995 -17V-179H4492.5599999999995Q4445.5599999999995 -86 4365.0599999999995 -42.5Q4284.5599999999995 1 4180.5599999999995 1Q4042.56 1 3939.56 -68.0Q3836.56 -137 3780.06 -257.5Q3723.56 -378 3723.56 -536Q3723.56 -695 3781.06 -817.0Q3838.56 -939 3941.06 -1008.5Q4043.56 -1078 4178.5599999999995 -1078Q4280.5599999999995 -1078 4361.0599999999995 -1034.5Q4441.5599999999995 -991 4492.5599999999995 -903H4493.5599999999995V-1056H4784.5599999999995V-41Q4784.5599999999995 126 4719.0599999999995 230.5Q4653.5599999999995 335 4537.5599999999995 383.5Q4421.5599999999995 432 4268.5599999999995 432ZM4256.5599999999995 -235Q4368.5599999999995 -235 4436.5599999999995 -318.0Q4504.5599999999995 -401 4504.5599999999995 -540Q4504.5599999999995 -678 4436.5599999999995 -761.0Q4368.5599999999995 -844 4256.5599999999995 -844Q4149.5599999999995 -844 4085.0599999999995 -764.5Q4020.56 -685 4020.56 -540Q4020.56 -394 4085.0599999999995 -314.5Q4149.5599999999995 -235 4256.5599999999995 -235Z M5296.08 18Q5138.08 18 5035.58 -61.0Q4933.08 -140 4933.08 -298Q4933.08 -417 4990.08 -484.5Q5047.08 -552 5141.08 -583.0Q5235.08 -614 5345.08 -624Q5490.08 -639 5548.08 -654.0Q5606.08 -669 5606.08 -720V-727Q5606.08 -785 5560.08 -822.0Q5514.08 -859 5433.08 -859Q5351.08 -859 5300.08 -821.0Q5249.08 -783 5244.08 -722H4967.08Q4977.08 -885 5101.08 -981.5Q5225.08 -1078 5442.08 -1078Q5659.08 -1078 5778.08 -981.5Q5897.08 -885 5897.08 -716V0H5609.08V-149H5605.08Q5563.08 -72 5490.08 -27.0Q5417.08 18 5296.08 18ZM5378.08 -187Q5484.08 -187 5546.08 -243.5Q5608.08 -300 5608.08 -386V-492Q5583.08 -478 5525.08 -466.5Q5467.08 -455 5396.08 -444Q5320.08 -432 5267.58 -400.5Q5215.08 -369 5215.08 -306Q5215.08 -250 5259.58 -218.5Q5304.08 -187 5378.08 -187Z"/></g>
</svg>
